<svg xmlns="http://www.w3.org/2000/svg" viewBox="0 0 1280 800" role="img" aria-label="rpiv-web-tools — Eight pluggable web providers for Pi Agent" preserveAspectRatio="xMidYMid meet">
  <title>rpiv-web-tools — Eight providers. One active backend. Search and read the web.</title>
  <defs>
    <style>
      .mono { font-family: 'JetBrains Mono', 'Fira Code', ui-monospace, SFMono-Regular, Menlo, Consolas, monospace; }
      .serif { font-family: 'Iowan Old Style', 'Hoefler Text', Charter, 'Source Serif Pro', Georgia, serif; }
      .ink { fill: #ede6d3; }
      .text-quiet { fill: #a8a29e; }
      .text-distant { fill: #9c968d; }
      .ochre { fill: #a8896c; }
      .sage { fill: #8a9580; }
      .sage-deep { fill: #5e6b56; }
      .logo { color: #ede6d3; }
    </style>
    <radialGradient id="wash-ochre" cx="25%" cy="10%" r="65%">
      <stop offset="0%" stop-color="#a8896c" stop-opacity="0.10"/>
      <stop offset="100%" stop-color="#a8896c" stop-opacity="0"/>
    </radialGradient>
    <radialGradient id="wash-sage" cx="85%" cy="90%" r="55%">
      <stop offset="0%" stop-color="#8a9580" stop-opacity="0.07"/>
      <stop offset="100%" stop-color="#8a9580" stop-opacity="0"/>
    </radialGradient>
  </defs>

  <rect width="1280" height="800" fill="#1c1a17"/>
  <rect width="1280" height="800" fill="url(#wash-ochre)"/>
  <rect width="1280" height="800" fill="url(#wash-sage)"/>

  <g fill="none" stroke="#8a9580" stroke-linecap="round" opacity="0.45">
    <path d="M1120 60 q36 -52 88 -60 q40 -5 68 14" stroke-width="1.1"/>
    <path d="M1140 80 q28 -18 60 -14 q24 3 42 14" stroke-width="0.7" opacity="0.6"/>
    <circle cx="1210" cy="32" r="2" opacity="0.5"/>
    <circle cx="1160" cy="60" r="1.4" opacity="0.4"/>
  </g>

  <text class="mono text-distant" x="80" y="64" font-size="11" letter-spacing="0.18em">PI AGENT EXTENSION</text>

  <text class="serif ink" x="80" y="152" font-size="80" font-weight="700" letter-spacing="-2.5">rpiv<tspan class="ochre">-</tspan>web<tspan class="ochre">-</tspan>tools</text>
  <text class="mono text-quiet" x="80" y="196" font-size="19" letter-spacing="0.2">Search the web. Read the page.</text>

  <line x1="80" y1="228" x2="1200" y2="228" stroke="#2e2b27" stroke-width="1"/>

  <rect x="80" y="264" width="1120" height="440" rx="3" fill="#1c1a17" stroke="#3a3631" stroke-width="1"/>

  <text class="mono text-distant" x="120" y="300" font-size="11" letter-spacing="0.2em">EIGHT PROVIDERS  &#183;  ONE ACTIVE BACKEND</text>
  <text class="mono text-distant" x="1160" y="300" font-size="11" letter-spacing="0.15em" text-anchor="end">/web-tools</text>

  <line x1="120" y1="316" x2="1160" y2="316" stroke="#2e2b27" stroke-width="1"/>

  <!-- Provider grid: 4 cols x 2 rows. Tile 230x150, h-gap 40, v-gap 30. Origin (120, 332). -->
  <g class="logo" transform="translate(120 332)">

    <!-- Brave -->
    <g transform="translate(0 0)">
      <rect width="230" height="138" rx="3" fill="none" stroke="#2e2b27" stroke-width="1"/>
      <svg x="87" y="22" width="56" height="56" viewBox="0 0 24 24" preserveAspectRatio="xMidYMid meet">
        <path fill="currentColor" d="M15.68 0l2.096 2.38s1.84-.512 2.709.358c.868.87 1.584 1.638 1.584 1.638l-.562 1.381.715 2.047s-2.104 7.98-2.35 8.955c-.486 1.919-.818 2.66-2.198 3.633-1.38.972-3.884 2.66-4.293 2.916-.409.256-.92.692-1.38.692-.46 0-.97-.436-1.38-.692a185.796 185.796 0 01-4.293-2.916c-1.38-.973-1.712-1.714-2.197-3.633-.247-.975-2.351-8.955-2.351-8.955l.715-2.047-.562-1.381s.716-.768 1.585-1.638c.868-.87 2.708-.358 2.708-.358L8.321 0h7.36zm-3.679 14.936c-.14 0-1.038.317-1.758.69-.72.373-1.242.637-1.409.742-.167.104-.065.301.087.409.152.107 2.194 1.69 2.393 1.866.198.175.489.464.687.464.198 0 .49-.29.688-.464.198-.175 2.24-1.759 2.392-1.866.152-.108.254-.305.087-.41-.167-.104-.689-.368-1.41-.741-.72-.373-1.617-.69-1.757-.69zm0-11.278s-.409.001-1.022.206-1.278.46-1.584.46c-.307 0-2.581-.434-2.581-.434S4.119 7.152 4.119 7.849c0 .697.339.881.68 1.243l2.02 2.149c.192.203.59.511.356 1.066-.235.555-.58 1.26-.196 1.977.384.716 1.042 1.194 1.464 1.115.421-.08 1.412-.598 1.776-.834.364-.237 1.518-1.19 1.518-1.554 0-.365-1.193-1.02-1.413-1.168-.22-.15-1.226-.725-1.247-.95-.02-.227-.012-.293.284-.851.297-.559.831-1.304.742-1.8-.089-.495-.95-.753-1.565-.986-.615-.232-1.799-.671-1.947-.74-.148-.068-.11-.133.339-.175.448-.043 1.719-.212 2.292-.052.573.16 1.552.403 1.632.532.079.13.149.134.067.579-.081.445-.5 2.581-.541 2.96-.04.38-.12.63.288.724.409.094 1.097.256 1.333.256s.924-.162 1.333-.256c.408-.093.329-.344.288-.723-.04-.38-.46-2.516-.541-2.961-.082-.445-.012-.45.067-.579.08-.129 1.059-.372 1.632-.532.573-.16 1.845.009 2.292.052.449.042.487.107.339.175-.148.069-1.332.508-1.947.74-.615.233-1.476.49-1.565.986-.09.496.445 1.241.742 1.8.297.558.304.624.284.85-.02.226-1.026.802-1.247.95-.22.15-1.413.804-1.413 1.169 0 .364 1.154 1.317 1.518 1.554.364.236 1.355.755 1.776.834.422.079 1.08-.4 1.464-1.115.384-.716.039-1.422-.195-1.977-.235-.555.163-.863.355-1.066l2.02-2.149c.341-.362.68-.546.68-1.243 0-.697-2.695-3.96-2.695-3.96s-2.274.436-2.58.436c-.307 0-.972-.256-1.585-.461-.613-.205-1.022-.206-1.022-.206z"/>
      </svg>
      <text class="serif ink" x="115" y="108" font-size="18" font-weight="600" text-anchor="middle">Brave</text>
      <text class="mono text-distant" x="115" y="128" font-size="10" letter-spacing="0.12em" text-anchor="middle">brave.com</text>
    </g>

    <!-- Tavily -->
    <g transform="translate(270 0)">
      <rect width="230" height="138" rx="3" fill="none" stroke="#2e2b27" stroke-width="1"/>
      <svg x="87" y="22" width="56" height="56" viewBox="0 0 24 24" preserveAspectRatio="xMidYMid meet">
        <path fill="currentColor" fill-rule="evenodd" d="M8.033 14.273a1.612 1.612 0 011.139.47l.04.042.044.043a1.61 1.61 0 010 2.277l-3.073 3.073.816.816c.6.6.303 1.627-.525 1.814l-5.159 1.165a1.07 1.07 0 01-.897-.2l-.102-.09a1.07 1.07 0 01-.289-1l1.164-5.158A1.079 1.079 0 013.006 17l.816.817 3.074-3.074a1.612 1.612 0 011.137-.47zM17.042 13.246c0-.85.935-1.366 1.653-.912l4.47 2.824c.336.212.503.562.503.911 0 .35-.167.7-.501.913l-4.472 2.824a1.079 1.079 0 01-1.654-.912v-1.155h-7.027c.37-.4.605-.902.677-1.438l.022-.232a2.65 2.65 0 00-.492-1.669h6.821v-1.154zM8.188 0c.35 0 .7.168.913.503l2.823 4.47a1.079 1.079 0 01-.911 1.655H9.857v6.692h-1.67a2.633 2.633 0 00-1.668.48V6.629H5.365c-.849 0-1.366-.936-.912-1.654L7.276.503A1.072 1.072 0 018.188 0z"/>
      </svg>
      <text class="serif ink" x="115" y="108" font-size="18" font-weight="600" text-anchor="middle">Tavily</text>
      <text class="mono text-distant" x="115" y="128" font-size="10" letter-spacing="0.12em" text-anchor="middle">tavily.com</text>
    </g>

    <!-- Serper -->
    <g transform="translate(540 0)">
      <rect width="230" height="138" rx="3" fill="none" stroke="#2e2b27" stroke-width="1"/>
      <svg x="87" y="22" width="56" height="56" viewBox="0 0 700 700" preserveAspectRatio="xMidYMid meet">
        <g transform="translate(0,700) scale(0.1,-0.1)" fill="currentColor">
          <path d="M3278 6996 c-1 -2 -39 -6 -83 -10 -798 -62 -1601 -438 -2176 -1019 -293 -296 -553 -671 -704 -1017 -25 -58 -50 -114 -55 -125 -45 -93 -150 -427 -176 -560 -2 -11 -10 -54 -19 -95 -22 -115 -30 -160 -41 -255 -26 -230 -26 -666 1 -826 2 -13 6 -46 9 -74 9 -78 22 -152 51 -285 21 -96 91 -339 114 -395 5 -11 25 -65 46 -120 63 -166 249 -531 312 -610 4 -6 34 -49 65 -95 261 -390 673 -772 1113 -1032 373 -221 845 -385 1274 -444 25 -3 57 -8 71 -10 163 -25 682 -25 842 1 13 2 46 7 73 10 71 10 87 13 115 18 14 3 43 8 65 12 325 59 741 212 1039 384 49 28 91 51 93 51 10 0 268 180 353 247 152 119 324 280 450 422 36 41 70 79 76 85 65 68 263 353 352 508 46 79 172 331 172 342 0 3 11 29 24 58 57 127 151 421 182 573 16 77 54 301 60 350 4 33 9 76 11 95 8 69 10 517 3 595 -14 151 -21 210 -25 225 -2 8 -7 35 -10 60 -17 129 -80 384 -136 552 -349 1039 -1171 1861 -2209 2207 -174 58 -415 118 -550 136 -19 3 -46 7 -60 10 -13 2 -54 7 -90 11 -36 3 -76 8 -90 11 -27 5 -536 14 -542 9z m522 -609 c14 -3 77 -13 140 -22 965 -137 1833 -807 2224 -1718 67 -156 141 -383 162 -497 3 -14 7 -33 10 -42 6 -20 9 -34 24 -128 6 -41 13 -86 16 -100 25 -157 26 -619 0 -755 -2 -11 -6 -41 -10 -66 -59 -406 -227 -834 -463 -1182 -142 -208 -336 -426 -513 -576 -30 -25 -60 -51 -67 -57 -37 -35 -228 -168 -326 -227 -291 -176 -694 -329 -982 -371 -22 -3 -51 -8 -65 -11 -35 -7 -93 -14 -180 -23 -91 -9 -473 -8 -550 1 -124 14 -161 20 -280 43 -69 14 -132 27 -141 29 -56 12 -260 76 -304 95 -11 4 -51 20 -88 34 -145 56 -361 169 -489 257 -31 22 -61 39 -66 39 -6 0 -12 3 -14 8 -1 4 -47 40 -100 80 -208 156 -414 368 -587 601 -112 152 -217 336 -315 554 -71 158 -170 486 -191 632 -1 11 -5 36 -9 55 -7 39 -11 70 -23 180 -15 146 -8 545 11 660 3 14 7 43 10 65 4 22 8 51 11 65 2 14 6 36 9 50 40 242 165 584 309 845 42 76 162 266 189 300 5 6 47 58 94 117 107 134 297 325 430 431 356 286 731 468 1184 575 81 20 105 24 195 37 22 3 49 7 60 10 11 2 56 7 100 11 44 4 82 8 84 10 5 5 474 -4 501 -9z"/>
          <path d="M3437 5244 c-1 -1 -29 -5 -62 -9 -215 -24 -402 -80 -591 -175 -351 -178 -559 -442 -591 -750 -30 -294 40 -488 249 -685 96 -91 185 -151 306 -207 81 -37 234 -92 285 -102 12 -2 42 -9 67 -15 59 -13 80 -17 240 -41 74 -11 146 -22 160 -24 14 -3 61 -10 105 -16 44 -7 87 -13 95 -15 8 -2 36 -6 62 -9 26 -4 91 -18 145 -32 54 -14 105 -27 113 -29 38 -8 205 -77 246 -101 71 -42 159 -129 184 -181 55 -117 24 -294 -74 -417 -101 -127 -363 -252 -591 -282 -27 -3 -59 -8 -70 -10 -28 -6 -265 -6 -295 0 -14 3 -44 7 -67 10 -105 12 -268 66 -369 122 -79 44 -127 79 -191 141 -78 76 -114 124 -163 219 -49 94 -75 123 -138 155 -90 45 -198 28 -271 -43 -84 -82 -97 -184 -40 -303 32 -65 83 -156 101 -180 4 -5 29 -37 55 -70 229 -288 583 -478 993 -533 73 -9 400 -9 470 2 541 78 978 372 1117 751 73 197 65 468 -18 642 -160 338 -532 541 -1129 617 -19 3 -78 11 -130 20 -52 8 -113 17 -135 21 -23 3 -50 7 -62 9 -11 3 -38 7 -59 11 -78 12 -100 16 -159 31 -202 52 -354 125 -445 215 -78 76 -104 136 -102 234 4 243 263 448 657 521 163 31 455 21 526 -16 10 -6 26 -10 36 -10 56 0 296 -149 358 -222 46 -54 82 -107 110 -162 40 -78 93 -130 158 -154 156 -59 319 55 321 223 0 52 -6 73 -47 155 -175 353 -547 607 -997 681 -62 10 -354 21 -363 13z"/>
        </g>
      </svg>
      <text class="serif ink" x="115" y="108" font-size="18" font-weight="600" text-anchor="middle">Serper</text>
      <text class="mono text-distant" x="115" y="128" font-size="10" letter-spacing="0.12em" text-anchor="middle">serper.dev</text>
    </g>

    <!-- Exa -->
    <g transform="translate(810 0)">
      <rect width="230" height="138" rx="3" fill="none" stroke="#2e2b27" stroke-width="1"/>
      <svg x="87" y="22" width="56" height="56" viewBox="0 0 24 24" preserveAspectRatio="xMidYMid meet">
        <path fill="currentColor" fill-rule="evenodd" d="M3 0h19v1.791L13.892 12 22 22.209V24H3V0zm9.62 10.348l6.589-8.557H6.03l6.59 8.557zM5.138 3.935v7.17h5.52l-5.52-7.17zm5.52 8.96h-5.52v7.17l5.52-7.17zM6.03 22.21l6.59-8.557 6.589 8.557H6.03z"/>
      </svg>
      <text class="serif ink" x="115" y="108" font-size="18" font-weight="600" text-anchor="middle">Exa</text>
      <text class="mono text-distant" x="115" y="128" font-size="10" letter-spacing="0.12em" text-anchor="middle">exa.ai</text>
    </g>

    <!-- Jina -->
    <g transform="translate(0 168)">
      <rect width="230" height="138" rx="3" fill="none" stroke="#2e2b27" stroke-width="1"/>
      <svg x="87" y="22" width="56" height="56" viewBox="0 0 24 24" preserveAspectRatio="xMidYMid meet">
        <path fill="currentColor" d="M6.608 21.416a4.608 4.608 0 100-9.217 4.608 4.608 0 000 9.217zM20.894 2.015c.614 0 1.106.492 1.106 1.106v9.002c0 5.13-4.148 9.309-9.217 9.37v-9.355l-.03-9.032c0-.614.491-1.106 1.106-1.106h7.158l-.123.015z"/>
      </svg>
      <text class="serif ink" x="115" y="108" font-size="18" font-weight="600" text-anchor="middle">Jina</text>
      <text class="mono text-distant" x="115" y="128" font-size="10" letter-spacing="0.12em" text-anchor="middle">jina.ai</text>
    </g>

    <!-- Firecrawl -->
    <g transform="translate(270 168)">
      <rect width="230" height="138" rx="3" fill="none" stroke="#2e2b27" stroke-width="1"/>
      <svg x="87" y="22" width="56" height="56" viewBox="0 0 50 72" preserveAspectRatio="xMidYMid meet">
        <path fill="currentColor" d="M41.7154 23.1929C38.9531 24.0129 36.8707 25.8677 35.3457 27.8826C35.0183 28.3151 34.3358 27.9901 34.4658 27.4601C37.3856 15.4534 33.5283 5.47401 21.5039 0.561817C20.894 0.311833 20.259 0.859299 20.419 1.49926C25.8887 23.4604 2.88236 21.608 5.78971 46.504C5.83971 46.9314 5.35973 47.2239 5.00975 46.9739C3.9198 46.1915 2.70237 44.5591 1.86741 43.4116C1.62242 43.0742 1.09245 43.1692 0.979951 43.5716C0.314984 45.9765 0 48.2413 0 50.4912C0 59.2407 4.49727 66.9427 11.3044 71.4074C11.6944 71.6624 12.1944 71.2974 12.0619 70.8499C11.7119 69.675 11.5144 68.4351 11.4994 67.1527C11.4994 66.3652 11.5494 65.5603 11.6719 64.8103C11.9569 62.9254 12.6119 61.1305 13.7118 59.4957C17.4841 53.8335 25.0462 48.3638 23.8388 40.9368C23.7613 40.4668 24.3163 40.1569 24.6663 40.4793C29.9935 45.3465 31.0485 51.8936 30.1735 57.7658C30.0985 58.2757 30.7385 58.5482 31.061 58.1482C31.8759 57.1283 32.8709 56.2334 33.9533 55.5609C34.2233 55.3934 34.5833 55.5209 34.6858 55.8209C35.2882 57.5733 36.1832 59.2182 37.0281 60.8631C38.0381 62.8404 38.5756 65.0978 38.4906 67.4877C38.4481 68.6501 38.2556 69.775 37.9331 70.8449C37.7956 71.2974 38.2906 71.6749 38.6881 71.4149C45.5002 66.9502 50 59.2482 50 50.4937C50 47.4514 49.4675 44.4691 48.4601 41.6743C46.3477 35.8121 40.988 31.4099 42.3429 23.7704C42.4079 23.4054 42.0704 23.0879 41.7154 23.1929Z"/>
      </svg>
      <text class="serif ink" x="115" y="108" font-size="18" font-weight="600" text-anchor="middle">Firecrawl</text>
      <text class="mono text-distant" x="115" y="128" font-size="10" letter-spacing="0.12em" text-anchor="middle">firecrawl.dev</text>
    </g>

    <!-- SearXNG -->
    <g transform="translate(540 168)">
      <rect width="230" height="138" rx="3" fill="none" stroke="#2e2b27" stroke-width="1"/>
      <svg x="87" y="22" width="56" height="56" viewBox="0 0 24 24" preserveAspectRatio="xMidYMid meet">
        <path fill="currentColor" d="m13.716 17.261 6.873 6.582L24 20.282l-6.824-6.536a9.11 9.11 0 0 0 1.143-4.43c0-5.055-4.105-9.159-9.16-9.159S0 4.261 0 9.316c0 5.055 4.104 9.159 9.159 9.159a9.11 9.11 0 0 0 4.557-1.214ZM9.159 2.773a6.546 6.546 0 0 1 6.543 6.543 6.545 6.545 0 0 1-6.543 6.542 6.545 6.545 0 0 1-6.542-6.542 6.545 6.545 0 0 1 6.542-6.543ZM7.26 5.713a4.065 4.065 0 0 1 4.744.747 4.064 4.064 0 0 1 .707 4.749l1.157.611a5.376 5.376 0 0 0-.935-6.282 5.377 5.377 0 0 0-6.274-.987l.601 1.162Z"/>
      </svg>
      <text class="serif ink" x="115" y="108" font-size="18" font-weight="600" text-anchor="middle">SearXNG</text>
      <text class="mono text-distant" x="115" y="128" font-size="10" letter-spacing="0.12em" text-anchor="middle">searxng.org</text>
    </g>

    <!-- Ollama -->
    <g transform="translate(810 168)">
      <rect width="230" height="138" rx="3" fill="none" stroke="#2e2b27" stroke-width="1"/>
      <svg x="87" y="22" width="56" height="56" viewBox="0 0 24 24" preserveAspectRatio="xMidYMid meet">
        <path fill="currentColor" d="M16.361 10.26a.894.894 0 0 0-.558.47l-.072.148.001.207c0 .193.004.217.059.353.076.193.152.312.291.448.24.238.51.3.872.205a.86.86 0 0 0 .517-.436.752.752 0 0 0 .08-.498c-.064-.453-.33-.782-.724-.897a1.06 1.06 0 0 0-.466 0zm-9.203.005c-.305.096-.533.32-.65.639a1.187 1.187 0 0 0-.06.52c.057.309.31.59.598.667.362.095.632.033.872-.205.14-.136.215-.255.291-.448.055-.136.059-.16.059-.353l.001-.207-.072-.148a.894.894 0 0 0-.565-.472 1.02 1.02 0 0 0-.474.007Zm4.184 2c-.131.071-.223.25-.195.383.031.143.157.288.353.407.105.063.112.072.117.136.004.038-.01.146-.029.243-.02.094-.036.194-.036.222.002.074.07.195.143.253.064.052.076.054.255.059.164.005.198.001.264-.03.169-.082.212-.234.15-.525-.052-.243-.042-.28.087-.355.137-.08.281-.219.324-.314a.365.365 0 0 0-.175-.48.394.394 0 0 0-.181-.033c-.126 0-.207.03-.355.124l-.085.053-.053-.032c-.219-.13-.259-.145-.391-.143a.396.396 0 0 0-.193.032zm.39-2.195c-.373.036-.475.05-.654.086-.291.06-.68.195-.951.328-.94.46-1.589 1.226-1.787 2.114-.04.176-.045.234-.045.53 0 .294.005.357.043.524.264 1.16 1.332 2.017 2.714 2.173.3.033 1.596.033 1.896 0 1.11-.125 2.064-.727 2.493-1.571.114-.226.169-.372.22-.602.039-.167.044-.23.044-.523 0-.297-.005-.355-.045-.531-.288-1.29-1.539-2.304-3.072-2.497a6.873 6.873 0 0 0-.855-.031zm.645.937a3.283 3.283 0 0 1 1.44.514c.223.148.537.458.671.662.166.251.26.508.303.82.02.143.01.251-.043.482-.08.345-.332.705-.672.957a3.115 3.115 0 0 1-.689.348c-.382.122-.632.144-1.525.138-.582-.006-.686-.01-.853-.042-.57-.107-1.022-.334-1.35-.68-.264-.28-.385-.535-.45-.946-.03-.192.025-.509.137-.776.136-.326.488-.73.836-.963.403-.269.934-.46 1.422-.512.187-.02.586-.02.773-.002zm-5.503-11a1.653 1.653 0 0 0-.683.298C5.617.74 5.173 1.666 4.985 2.819c-.07.436-.119 1.04-.119 1.503 0 .544.064 1.24.155 1.721.02.107.031.202.023.208a8.12 8.12 0 0 1-.187.152 5.324 5.324 0 0 0-.949 1.02 5.49 5.49 0 0 0-.94 2.339 6.625 6.625 0 0 0-.023 1.357c.091.78.325 1.438.727 2.04l.13.195-.037.064c-.269.452-.498 1.105-.605 1.732-.084.496-.095.629-.095 1.294 0 .67.009.803.088 1.266.095.555.288 1.143.503 1.534.071.128.243.393.264.407.007.003-.014.067-.046.141a7.405 7.405 0 0 0-.548 1.873c-.062.417-.071.552-.071.991 0 .56.031.832.148 1.279L3.42 24h1.478l-.05-.091c-.297-.552-.325-1.575-.068-2.597.117-.472.25-.819.498-1.296l.148-.29v-.177c0-.165-.003-.184-.057-.293a.915.915 0 0 0-.194-.25 1.74 1.74 0 0 1-.385-.543c-.424-.92-.506-2.286-.208-3.451.124-.486.329-.918.544-1.154a.787.787 0 0 0 .223-.531c0-.195-.07-.355-.224-.522a3.136 3.136 0 0 1-.817-1.729c-.14-.96.114-2.005.69-2.834.563-.814 1.353-1.336 2.237-1.475.199-.033.57-.028.776.01.226.04.367.028.512-.041.179-.085.268-.19.374-.431.093-.215.165-.333.36-.576.234-.29.46-.489.822-.729.413-.27.884-.467 1.352-.561.17-.035.25-.04.569-.04.319 0 .398.005.569.04a4.07 4.07 0 0 1 1.914.997c.117.109.398.457.488.602.034.057.095.177.132.267.105.241.195.346.374.43.14.068.286.082.503.045.343-.058.607-.053.943.016 1.144.23 2.14 1.173 2.581 2.437.385 1.108.276 2.267-.296 3.163-.097.15-.193.27-.333.419-.301.322-.301.722-.001 1.053.493.539.801 1.866.708 3.036-.062.772-.26 1.463-.533 1.854a2.096 2.096 0 0 1-.224.258.916.916 0 0 0-.194.25c-.054.109-.057.128-.057.293v.178l.148.29c.248.476.38.823.498 1.295.253 1.008.231 2.01-.059 2.581a.845.845 0 0 0-.044.098c0 .006.329.009.732.009h.73l.02-.074.036-.134c.019-.076.057-.3.088-.516.029-.217.029-1.016 0-1.258-.11-.875-.295-1.57-.597-2.226-.032-.074-.053-.138-.046-.141.008-.005.057-.074.108-.152.376-.569.607-1.284.724-2.228.031-.26.031-1.378 0-1.628-.083-.645-.182-1.082-.348-1.525a6.083 6.083 0 0 0-.329-.7l-.038-.064.131-.194c.402-.604.636-1.262.727-2.04a6.625 6.625 0 0 0-.024-1.358 5.512 5.512 0 0 0-.939-2.339 5.325 5.325 0 0 0-.95-1.02 8.097 8.097 0 0 1-.186-.152.692.692 0 0 1 .023-.208c.208-1.087.201-2.443-.017-3.503-.19-.924-.535-1.658-.98-2.082-.354-.338-.716-.482-1.15-.455-.996.059-1.8 1.205-2.116 3.01a6.805 6.805 0 0 0-.097.726c0 .036-.007.066-.015.066a.96.96 0 0 1-.149-.078A4.857 4.857 0 0 0 12 3.03c-.832 0-1.687.243-2.456.698a.958.958 0 0 1-.148.078c-.008 0-.015-.03-.015-.066a6.71 6.71 0 0 0-.097-.725C8.997 1.392 8.337.319 7.46.048a2.096 2.096 0 0 0-.585-.041Zm.293 1.402c.248.197.523.759.682 1.388.03.113.06.244.069.292.007.047.026.152.041.233.067.365.098.76.102 1.24l.002.475-.12.175-.118.178h-.278c-.324 0-.646.041-.954.124l-.238.06c-.033.007-.038-.003-.057-.144a8.438 8.438 0 0 1 .016-2.323c.124-.788.413-1.501.696-1.711.067-.05.079-.049.157.013zm9.825-.012c.17.126.358.46.498.888.28.854.36 2.028.212 3.145-.019.14-.024.151-.057.144l-.238-.06a3.693 3.693 0 0 0-.954-.124h-.278l-.119-.178-.119-.175.002-.474c.004-.669.066-1.19.214-1.772.157-.623.434-1.185.68-1.382.078-.062.09-.063.159-.012z"/>
      </svg>
      <text class="serif ink" x="115" y="108" font-size="18" font-weight="600" text-anchor="middle">Ollama</text>
      <text class="mono text-distant" x="115" y="128" font-size="10" letter-spacing="0.12em" text-anchor="middle">ollama.com</text>
    </g>

  </g>

  <text class="mono" x="120" y="686" font-size="13"><tspan class="sage" font-weight="700">&#10095;</tspan> <tspan class="ink">web_search</tspan> <tspan class="text-quiet">"server-sent events vs websockets"</tspan>  <tspan class="text-distant">&#8594; 3 results &#183; 0.42s</tspan></text>

  <line x1="80" y1="740" x2="1200" y2="740" stroke="#2e2b27" stroke-width="1"/>

  <text class="mono text-distant" x="80" y="776" font-size="12" letter-spacing="0.12em">
    <tspan class="ochre" font-weight="700">&#9612; rpiv-web-tools</tspan>
    <tspan dx="12">&#9474;</tspan>
    <tspan dx="12" class="sage">8 providers</tspan>
    <tspan dx="12">&#9474;</tspan>
    <tspan dx="12">npm:@juicesharp/rpiv-web-tools</tspan>
  </text>
</svg>
